<svg xmlns="http://www.w3.org/2000/svg" width="1600" height="1000" viewBox="0 0 1600 1000">
  <defs>
    <linearGradient id="g" x1="0" y1="0" x2="1" y2="1"><stop offset="0" stop-color="#050505"/><stop offset="1" stop-color="#1A1A1A"/></linearGradient>
    <radialGradient id="r" cx="78%" cy="25%" r="55%"><stop offset="0" stop-color="#B6FF00" stop-opacity=".34"/><stop offset=".45" stop-color="#B6FF00" stop-opacity=".08"/><stop offset="1" stop-color="#050505" stop-opacity="0"/></radialGradient>
    <pattern id="grid" width="80" height="80" patternUnits="userSpaceOnUse"><path d="M80 0H0V80" fill="none" stroke="#ffffff" stroke-opacity=".06" stroke-width="2"/></pattern>
  </defs>
  <rect width="1600" height="1000" fill="url(#g)"/>
  <rect width="1600" height="1000" fill="url(#grid)"/>
  <rect width="1600" height="1000" fill="url(#r)"/>
  <g transform="translate(880 180) rotate(10)">
    <path d="M150 0 L310 70 L260 370 L40 370 L0 70 Z" fill="#f7f7f7" opacity=".96"/>
    <path d="M40 90 L260 90 L238 340 L62 340 Z" fill="#111"/>
    <path d="M60 130 L235 330" stroke="#B6FF00" stroke-width="24" opacity=".85"/>
    <path d="M75 290 L240 140" stroke="#fff" stroke-width="8" opacity=".55"/>
    <text x="150" y="220" text-anchor="middle" font-family="Arial Black, Arial" font-size="54" fill="#B6FF00">08</text>
  </g>
  <g transform="translate(555 220) rotate(-8) scale(.8)">
    <path d="M150 0 L310 70 L260 370 L40 370 L0 70 Z" fill="#fff" opacity=".9"/>
    <path d="M40 90 L260 90 L238 340 L62 340 Z" fill="#0b234d"/>
    <path d="M55 320 L260 110" stroke="#B6FF00" stroke-width="18"/>
    <text x="150" y="220" text-anchor="middle" font-family="Arial Black, Arial" font-size="48" fill="#fff">23</text>
  </g>
  <circle cx="1260" cy="750" r="110" fill="none" stroke="#B6FF00" stroke-width="20" opacity=".45"/>
  <circle cx="1220" cy="710" r="24" fill="#B6FF00" opacity=".6"/>
  <text x="90" y="130" font-family="Arial Black, Arial" font-size="54" fill="#fff">POXIOL</text>
  <text x="90" y="205" font-family="Arial Black, Arial" font-size="70" fill="#fff">Baseball &amp; Softball</text>
  <text x="92" y="270" font-family="Arial, sans-serif" font-size="30" fill="#d4d4d4">Custom Sports Page</text>
  <text x="92" y="895" font-family="Arial Black, Arial" font-size="28" fill="#B6FF00">CUSTOM TEAMWEAR 鈥?OEM/ODM 鈥?FREE MOCKUP</text>
</svg>
